<?xml version="1.0" encoding="utf-8"?><svg xmlns="http://www.w3.org/2000/svg" viewBox="0 0 370 370"><g id="emblem"><path d="M160.44,240.93l-21.21-43.33h-15.26v43.33h-21.21v-108.63h42.57c5.19,0,9.94.82,14.27,2.44,4.32,1.63,8.03,3.92,11.14,6.87,3.1,2.95,5.52,6.46,7.25,10.53,1.73,4.07,2.59,8.54,2.59,13.43,0,8.85-3.05,16.17-9.15,21.97-1.43,1.43-2.85,2.6-4.27,3.51-1.43.92-3.56,1.93-6.41,3.05l24.26,46.84h-24.56ZM143.96,180.06c4.58,0,8.29-1.33,11.14-3.99,2.85-2.66,4.27-6.13,4.27-10.43s-1.43-7.77-4.27-10.43c-2.85-2.66-6.56-3.99-11.14-3.99h-19.99v28.83h19.99Z"></path><path d="M260.21,240.93l-21.21-43.33h-15.26v43.33h-21.21v-108.63h42.57c5.19,0,9.94.82,14.27,2.44,4.32,1.63,8.03,3.92,11.14,6.87,3.1,2.95,5.52,6.46,7.25,10.53,1.73,4.07,2.59,8.54,2.59,13.43,0,8.85-3.05,16.17-9.15,21.97-1.43,1.43-2.85,2.6-4.27,3.51-1.43.92-3.56,1.93-6.41,3.05l24.26,46.84h-24.56ZM243.74,180.06c4.58,0,8.29-1.33,11.14-3.99,2.85-2.66,4.27-6.13,4.27-10.43s-1.43-7.77-4.27-10.43c-2.85-2.66-6.56-3.99-11.14-3.99h-19.99v28.83h19.99Z"></path><circle cx="185" cy="185" r="175" fill="none" stroke="#000" stroke-width="20"></circle></g></svg>